<mxfile host="app.diagrams.net" agent="Mozilla/5.0 (Windows NT 10.0; Win64; x64) AppleWebKit/537.36 (KHTML, like Gecko) Chrome/129.0.0.0 Safari/537.36 Edg/129.0.0.0" version="24.7.17">
  <diagram name="Page-1" id="mk2gpofAM5KhwrKzIhrE">
    <mxGraphModel dx="960" dy="595" grid="1" gridSize="10" guides="1" tooltips="1" connect="1" arrows="1" fold="1" page="1" pageScale="1" pageWidth="1400" pageHeight="850" math="0" shadow="0">
      <root>
        <mxCell id="0" />
        <mxCell id="1" parent="0" />
        <mxCell id="H4yflijEu1tVJ6YrY11g-3" value="&lt;b&gt;Data Source&lt;/b&gt;" style="text;html=1;align=center;verticalAlign=middle;whiteSpace=wrap;rounded=0;" parent="1" vertex="1">
          <mxGeometry x="40" y="60" width="80" height="30" as="geometry" />
        </mxCell>
        <mxCell id="H4yflijEu1tVJ6YrY11g-8" value="" style="edgeStyle=orthogonalEdgeStyle;rounded=0;orthogonalLoop=1;jettySize=auto;html=1;" parent="1" source="H4yflijEu1tVJ6YrY11g-4" target="H4yflijEu1tVJ6YrY11g-7" edge="1">
          <mxGeometry relative="1" as="geometry" />
        </mxCell>
        <mxCell id="H4yflijEu1tVJ6YrY11g-4" value="" style="sketch=0;outlineConnect=0;fontColor=#232F3E;gradientColor=none;fillColor=#C925D1;strokeColor=none;dashed=0;verticalLabelPosition=bottom;verticalAlign=top;align=center;html=1;fontSize=12;fontStyle=0;aspect=fixed;pointerEvents=1;shape=mxgraph.aws4.rds_postgresql_instance;" parent="1" vertex="1">
          <mxGeometry x="40" y="117" width="78" height="78" as="geometry" />
        </mxCell>
        <mxCell id="H4yflijEu1tVJ6YrY11g-9" value="" style="edgeStyle=orthogonalEdgeStyle;rounded=0;orthogonalLoop=1;jettySize=auto;html=1;" parent="1" source="H4yflijEu1tVJ6YrY11g-5" target="H4yflijEu1tVJ6YrY11g-7" edge="1">
          <mxGeometry relative="1" as="geometry" />
        </mxCell>
        <mxCell id="H4yflijEu1tVJ6YrY11g-5" value="" style="sketch=0;outlineConnect=0;fontColor=#232F3E;gradientColor=none;fillColor=#C925D1;strokeColor=none;dashed=0;verticalLabelPosition=bottom;verticalAlign=top;align=center;html=1;fontSize=12;fontStyle=0;aspect=fixed;pointerEvents=1;shape=mxgraph.aws4.rds_sql_server_instance;" parent="1" vertex="1">
          <mxGeometry x="40" y="240" width="78" height="78" as="geometry" />
        </mxCell>
        <mxCell id="H4yflijEu1tVJ6YrY11g-11" value="" style="edgeStyle=orthogonalEdgeStyle;rounded=0;orthogonalLoop=1;jettySize=auto;html=1;" parent="1" source="H4yflijEu1tVJ6YrY11g-7" target="H4yflijEu1tVJ6YrY11g-10" edge="1">
          <mxGeometry relative="1" as="geometry" />
        </mxCell>
        <mxCell id="H4yflijEu1tVJ6YrY11g-12" value="&lt;b&gt;Selected Table&lt;/b&gt;" style="edgeLabel;html=1;align=center;verticalAlign=middle;resizable=0;points=[];" parent="H4yflijEu1tVJ6YrY11g-11" vertex="1" connectable="0">
          <mxGeometry x="0.0185" y="7" relative="1" as="geometry">
            <mxPoint y="-2" as="offset" />
          </mxGeometry>
        </mxCell>
        <mxCell id="pCc48zgU_tDkHlOEYlg7-11" style="edgeStyle=orthogonalEdgeStyle;rounded=0;orthogonalLoop=1;jettySize=auto;html=1;" parent="1" source="H4yflijEu1tVJ6YrY11g-7" edge="1">
          <mxGeometry relative="1" as="geometry">
            <mxPoint x="350" y="430" as="targetPoint" />
          </mxGeometry>
        </mxCell>
        <mxCell id="H4yflijEu1tVJ6YrY11g-7" value="" style="sketch=0;points=[[0,0,0],[0.25,0,0],[0.5,0,0],[0.75,0,0],[1,0,0],[0,1,0],[0.25,1,0],[0.5,1,0],[0.75,1,0],[1,1,0],[0,0.25,0],[0,0.5,0],[0,0.75,0],[1,0.25,0],[1,0.5,0],[1,0.75,0]];outlineConnect=0;fontColor=#232F3E;fillColor=#01A88D;strokeColor=#ffffff;dashed=0;verticalLabelPosition=bottom;verticalAlign=top;align=center;html=1;fontSize=12;fontStyle=0;aspect=fixed;shape=mxgraph.aws4.resourceIcon;resIcon=mxgraph.aws4.database_migration_service;" parent="1" vertex="1">
          <mxGeometry x="220" y="180" width="78" height="78" as="geometry" />
        </mxCell>
        <mxCell id="pCc48zgU_tDkHlOEYlg7-12" style="edgeStyle=orthogonalEdgeStyle;rounded=0;orthogonalLoop=1;jettySize=auto;html=1;" parent="1" source="H4yflijEu1tVJ6YrY11g-10" edge="1">
          <mxGeometry relative="1" as="geometry">
            <mxPoint x="350" y="350" as="targetPoint" />
          </mxGeometry>
        </mxCell>
        <mxCell id="H4yflijEu1tVJ6YrY11g-10" value="" style="sketch=0;points=[[0,0,0],[0.25,0,0],[0.5,0,0],[0.75,0,0],[1,0,0],[0,1,0],[0.25,1,0],[0.5,1,0],[0.75,1,0],[1,1,0],[0,0.25,0],[0,0.5,0],[0,0.75,0],[1,0.25,0],[1,0.5,0],[1,0.75,0]];outlineConnect=0;fontColor=#232F3E;fillColor=#C925D1;strokeColor=#ffffff;dashed=0;verticalLabelPosition=bottom;verticalAlign=top;align=center;html=1;fontSize=12;fontStyle=0;aspect=fixed;shape=mxgraph.aws4.resourceIcon;resIcon=mxgraph.aws4.aurora;" parent="1" vertex="1">
          <mxGeometry x="385" y="180" width="78" height="78" as="geometry" />
        </mxCell>
        <mxCell id="H4yflijEu1tVJ6YrY11g-13" value="LOS_CAMUNDA, CMS" style="text;html=1;align=center;verticalAlign=middle;whiteSpace=wrap;rounded=0;" parent="1" vertex="1">
          <mxGeometry x="10" y="195" width="140" height="30" as="geometry" />
        </mxCell>
        <mxCell id="XdeNM7-8SlyZll2nMhjC-6" value="&lt;b&gt;Ingest &amp;amp; ODS&lt;/b&gt;" style="text;html=1;align=center;verticalAlign=middle;whiteSpace=wrap;rounded=0;" parent="1" vertex="1">
          <mxGeometry x="269" y="60" width="151" height="30" as="geometry" />
        </mxCell>
        <mxCell id="XdeNM7-8SlyZll2nMhjC-9" value="LMS_CONFINS, LOS &amp;amp; Other" style="text;html=1;align=center;verticalAlign=middle;whiteSpace=wrap;rounded=0;" parent="1" vertex="1">
          <mxGeometry x="10" y="322" width="140" height="30" as="geometry" />
        </mxCell>
        <mxCell id="XdeNM7-8SlyZll2nMhjC-11" value="Data Migration Service" style="text;html=1;align=center;verticalAlign=middle;whiteSpace=wrap;rounded=0;" parent="1" vertex="1">
          <mxGeometry x="214" y="141" width="90" height="30" as="geometry" />
        </mxCell>
        <mxCell id="XdeNM7-8SlyZll2nMhjC-12" value="Aurora Postgre SQL" style="text;html=1;align=center;verticalAlign=middle;whiteSpace=wrap;rounded=0;" parent="1" vertex="1">
          <mxGeometry x="379" y="141" width="90" height="30" as="geometry" />
        </mxCell>
        <mxCell id="XdeNM7-8SlyZll2nMhjC-13" value="&lt;b&gt;Lake House&lt;/b&gt;" style="text;html=1;align=center;verticalAlign=middle;whiteSpace=wrap;rounded=0;" parent="1" vertex="1">
          <mxGeometry x="525.75" y="60" width="95" height="30" as="geometry" />
        </mxCell>
        <mxCell id="XdeNM7-8SlyZll2nMhjC-28" value="" style="edgeStyle=orthogonalEdgeStyle;rounded=0;orthogonalLoop=1;jettySize=auto;html=1;entryX=-0.002;entryY=0.339;entryDx=0;entryDy=0;entryPerimeter=0;" parent="1" target="XdeNM7-8SlyZll2nMhjC-26" edge="1">
          <mxGeometry relative="1" as="geometry">
            <Array as="points">
              <mxPoint x="851" y="219" />
            </Array>
            <mxPoint x="818" y="219.4000000000001" as="sourcePoint" />
          </mxGeometry>
        </mxCell>
        <mxCell id="XdeNM7-8SlyZll2nMhjC-25" value="&lt;b&gt;Serving Layer Data Warehouse &amp;amp; Data Mart&lt;/b&gt;" style="text;html=1;align=center;verticalAlign=middle;whiteSpace=wrap;rounded=0;" parent="1" vertex="1">
          <mxGeometry x="710" y="37" width="100" height="80" as="geometry" />
        </mxCell>
        <mxCell id="XdeNM7-8SlyZll2nMhjC-26" value="" style="fillColor=none;strokeColor=#5A6C86;dashed=1;verticalAlign=top;fontStyle=0;fontColor=#5A6C86;whiteSpace=wrap;html=1;" parent="1" vertex="1">
          <mxGeometry x="856" y="60" width="160" height="470" as="geometry" />
        </mxCell>
        <mxCell id="XdeNM7-8SlyZll2nMhjC-31" value="" style="sketch=0;points=[[0,0,0],[0.25,0,0],[0.5,0,0],[0.75,0,0],[1,0,0],[0,1,0],[0.25,1,0],[0.5,1,0],[0.75,1,0],[1,1,0],[0,0.25,0],[0,0.5,0],[0,0.75,0],[1,0.25,0],[1,0.5,0],[1,0.75,0]];outlineConnect=0;fontColor=#232F3E;fillColor=#8C4FFF;strokeColor=#ffffff;dashed=0;verticalLabelPosition=bottom;verticalAlign=top;align=center;html=1;fontSize=12;fontStyle=0;aspect=fixed;shape=mxgraph.aws4.resourceIcon;resIcon=mxgraph.aws4.quicksight;" parent="1" vertex="1">
          <mxGeometry x="897" y="180" width="78" height="78" as="geometry" />
        </mxCell>
        <mxCell id="XdeNM7-8SlyZll2nMhjC-32" value="" style="image;aspect=fixed;html=1;points=[];align=center;fontSize=12;image=img/lib/azure2/general/Dashboard2.svg;" parent="1" vertex="1">
          <mxGeometry x="897" y="306" width="85" height="60" as="geometry" />
        </mxCell>
        <mxCell id="XdeNM7-8SlyZll2nMhjC-33" value="" style="sketch=0;outlineConnect=0;fontColor=#232F3E;gradientColor=none;fillColor=#232F3D;strokeColor=none;dashed=0;verticalLabelPosition=bottom;verticalAlign=top;align=center;html=1;fontSize=12;fontStyle=0;aspect=fixed;pointerEvents=1;shape=mxgraph.aws4.data_table;" parent="1" vertex="1">
          <mxGeometry x="897" y="412.5" width="78" height="59" as="geometry" />
        </mxCell>
        <mxCell id="XdeNM7-8SlyZll2nMhjC-34" value="&lt;b&gt;Data Visualization&lt;/b&gt;" style="text;html=1;align=center;verticalAlign=middle;whiteSpace=wrap;rounded=0;" parent="1" vertex="1">
          <mxGeometry x="889.5" y="41" width="100" height="80" as="geometry" />
        </mxCell>
        <mxCell id="XdeNM7-8SlyZll2nMhjC-37" value="Quick Sight" style="text;html=1;align=center;verticalAlign=middle;whiteSpace=wrap;rounded=0;" parent="1" vertex="1">
          <mxGeometry x="894" y="158" width="84" height="30" as="geometry" />
        </mxCell>
        <mxCell id="XdeNM7-8SlyZll2nMhjC-38" value="Dashboard&amp;nbsp; &amp;amp; summary" style="text;html=1;align=center;verticalAlign=middle;whiteSpace=wrap;rounded=0;" parent="1" vertex="1">
          <mxGeometry x="889.5" y="277" width="93" height="30" as="geometry" />
        </mxCell>
        <mxCell id="XdeNM7-8SlyZll2nMhjC-39" value="Granular data" style="text;html=1;align=center;verticalAlign=middle;whiteSpace=wrap;rounded=0;" parent="1" vertex="1">
          <mxGeometry x="889.5" y="390" width="94" height="30" as="geometry" />
        </mxCell>
        <mxCell id="hJE6HdYvSHdutJNPKk4N-1" value="" style="outlineConnect=0;dashed=0;verticalLabelPosition=bottom;verticalAlign=top;align=center;html=1;shape=mxgraph.aws3.redshift;fillColor=#2E73B8;gradientColor=none;" parent="1" vertex="1">
          <mxGeometry x="730" y="174" width="82.5" height="88" as="geometry" />
        </mxCell>
        <mxCell id="hJE6HdYvSHdutJNPKk4N-3" value="Redshift" style="text;html=1;align=center;verticalAlign=middle;whiteSpace=wrap;rounded=0;" parent="1" vertex="1">
          <mxGeometry x="741.25" y="144" width="60" height="30" as="geometry" />
        </mxCell>
        <mxCell id="hJE6HdYvSHdutJNPKk4N-24" value="" style="fillColor=none;strokeColor=#5A6C86;dashed=1;verticalAlign=top;fontStyle=0;fontColor=#5A6C86;whiteSpace=wrap;html=1;" parent="1" vertex="1">
          <mxGeometry x="10" y="60" width="180" height="470" as="geometry" />
        </mxCell>
        <mxCell id="vL2axl4LJf5YM-n6OEkn-72" value="" style="outlineConnect=0;dashed=0;verticalLabelPosition=bottom;verticalAlign=top;align=center;html=1;shape=mxgraph.aws3.iam;fillColor=#759C3E;gradientColor=none;" parent="1" vertex="1">
          <mxGeometry x="274" y="641" width="42" height="81" as="geometry" />
        </mxCell>
        <mxCell id="vL2axl4LJf5YM-n6OEkn-73" value="" style="outlineConnect=0;dashed=0;verticalLabelPosition=bottom;verticalAlign=top;align=center;html=1;shape=mxgraph.aws3.cloudwatch;fillColor=#759C3E;gradientColor=none;" parent="1" vertex="1">
          <mxGeometry x="356" y="639" width="82.5" height="93" as="geometry" />
        </mxCell>
        <mxCell id="vL2axl4LJf5YM-n6OEkn-74" value="" style="outlineConnect=0;dashed=0;verticalLabelPosition=bottom;verticalAlign=top;align=center;html=1;shape=mxgraph.aws3.cloudtrail;fillColor=#759C3E;gradientColor=none;" parent="1" vertex="1">
          <mxGeometry x="472.5" y="639" width="76.5" height="93" as="geometry" />
        </mxCell>
        <mxCell id="vL2axl4LJf5YM-n6OEkn-75" value="" style="outlineConnect=0;dashed=0;verticalLabelPosition=bottom;verticalAlign=top;align=center;html=1;shape=mxgraph.aws3.cloudformation;fillColor=#759C3E;gradientColor=none;" parent="1" vertex="1">
          <mxGeometry x="583.25" y="641" width="76.5" height="93" as="geometry" />
        </mxCell>
        <mxCell id="vL2axl4LJf5YM-n6OEkn-76" value="" style="outlineConnect=0;dashed=0;verticalLabelPosition=bottom;verticalAlign=top;align=center;html=1;shape=mxgraph.aws3.cognito;fillColor=#AD688B;gradientColor=none;" parent="1" vertex="1">
          <mxGeometry x="693.5" y="642" width="76.5" height="93" as="geometry" />
        </mxCell>
        <mxCell id="vL2axl4LJf5YM-n6OEkn-77" value="&lt;b&gt;Security &amp;amp; Monitoring&lt;/b&gt;" style="text;html=1;align=center;verticalAlign=middle;whiteSpace=wrap;rounded=0;" parent="1" vertex="1">
          <mxGeometry x="406.75" y="611" width="220" height="30" as="geometry" />
        </mxCell>
        <mxCell id="vL2axl4LJf5YM-n6OEkn-78" value="IAM" style="text;html=1;align=center;verticalAlign=middle;whiteSpace=wrap;rounded=0;" parent="1" vertex="1">
          <mxGeometry x="265" y="722" width="60" height="30" as="geometry" />
        </mxCell>
        <mxCell id="vL2axl4LJf5YM-n6OEkn-79" value="Cloud Watch" style="text;html=1;align=center;verticalAlign=middle;whiteSpace=wrap;rounded=0;" parent="1" vertex="1">
          <mxGeometry x="356" y="735" width="72.75" height="30" as="geometry" />
        </mxCell>
        <mxCell id="vL2axl4LJf5YM-n6OEkn-80" value="Cloud Trail" style="text;html=1;align=center;verticalAlign=middle;whiteSpace=wrap;rounded=0;" parent="1" vertex="1">
          <mxGeometry x="480.75" y="735" width="60" height="30" as="geometry" />
        </mxCell>
        <mxCell id="vL2axl4LJf5YM-n6OEkn-81" value="Cloud Formation" style="text;html=1;align=center;verticalAlign=middle;whiteSpace=wrap;rounded=0;" parent="1" vertex="1">
          <mxGeometry x="591.5" y="735" width="60" height="30" as="geometry" />
        </mxCell>
        <mxCell id="vL2axl4LJf5YM-n6OEkn-82" value="Cognito" style="text;html=1;align=center;verticalAlign=middle;whiteSpace=wrap;rounded=0;" parent="1" vertex="1">
          <mxGeometry x="701.75" y="740" width="60" height="30" as="geometry" />
        </mxCell>
        <mxCell id="vL2axl4LJf5YM-n6OEkn-83" value="" style="rounded=1;arcSize=10;dashed=1;fillColor=none;gradientColor=none;dashPattern=1 1;strokeWidth=2;" parent="1" vertex="1">
          <mxGeometry x="263.5" y="588.75" width="536.5" height="199.5" as="geometry" />
        </mxCell>
        <mxCell id="fObhZFrNCeXo0coglgrI-5" style="edgeStyle=orthogonalEdgeStyle;rounded=0;orthogonalLoop=1;jettySize=auto;html=1;" parent="1" source="fObhZFrNCeXo0coglgrI-4" target="H4yflijEu1tVJ6YrY11g-14" edge="1">
          <mxGeometry relative="1" as="geometry">
            <mxPoint x="170" y="610" as="targetPoint" />
            <Array as="points" />
          </mxGeometry>
        </mxCell>
        <mxCell id="pCc48zgU_tDkHlOEYlg7-22" value="Upload&amp;nbsp;" style="edgeLabel;html=1;align=center;verticalAlign=middle;resizable=0;points=[];" parent="fObhZFrNCeXo0coglgrI-5" vertex="1" connectable="0">
          <mxGeometry x="-0.6574" y="-1" relative="1" as="geometry">
            <mxPoint x="35" y="-1" as="offset" />
          </mxGeometry>
        </mxCell>
        <mxCell id="fObhZFrNCeXo0coglgrI-4" value="" style="sketch=0;pointerEvents=1;shadow=0;dashed=0;html=1;strokeColor=none;fillColor=#505050;labelPosition=center;verticalLabelPosition=bottom;verticalAlign=top;outlineConnect=0;align=center;shape=mxgraph.office.services.excel_services;" parent="1" vertex="1">
          <mxGeometry x="40" y="383" width="90" height="87" as="geometry" />
        </mxCell>
        <mxCell id="pCc48zgU_tDkHlOEYlg7-3" value="AWS Step Functions workflow" style="points=[[0,0],[0.25,0],[0.5,0],[0.75,0],[1,0],[1,0.25],[1,0.5],[1,0.75],[1,1],[0.75,1],[0.5,1],[0.25,1],[0,1],[0,0.75],[0,0.5],[0,0.25]];outlineConnect=0;gradientColor=none;html=1;whiteSpace=wrap;fontSize=12;fontStyle=0;container=1;pointerEvents=0;collapsible=0;recursiveResize=0;shape=mxgraph.aws4.group;grIcon=mxgraph.aws4.group_aws_step_functions_workflow;strokeColor=#CD2264;fillColor=none;verticalAlign=top;align=left;spacingLeft=30;fontColor=#CD2264;dashed=0;" parent="1" vertex="1">
          <mxGeometry x="202" y="107" width="640" height="416" as="geometry" />
        </mxCell>
        <mxCell id="pCc48zgU_tDkHlOEYlg7-1" value="" style="group" parent="pCc48zgU_tDkHlOEYlg7-3" vertex="1" connectable="0">
          <mxGeometry x="314.75" y="249" width="76.5" height="116.5" as="geometry" />
        </mxCell>
        <mxCell id="H4yflijEu1tVJ6YrY11g-14" value="" style="outlineConnect=0;dashed=0;verticalLabelPosition=bottom;verticalAlign=top;align=center;html=1;shape=mxgraph.aws3.s3;fillColor=#E05243;gradientColor=none;" parent="pCc48zgU_tDkHlOEYlg7-1" vertex="1">
          <mxGeometry y="23.5" width="76.5" height="93" as="geometry" />
        </mxCell>
        <mxCell id="XdeNM7-8SlyZll2nMhjC-14" value="S3" style="text;html=1;align=center;verticalAlign=middle;whiteSpace=wrap;rounded=0;" parent="pCc48zgU_tDkHlOEYlg7-1" vertex="1">
          <mxGeometry x="11.75" width="60" height="30" as="geometry" />
        </mxCell>
        <mxCell id="pCc48zgU_tDkHlOEYlg7-5" value="" style="group" parent="pCc48zgU_tDkHlOEYlg7-3" vertex="1" connectable="0">
          <mxGeometry x="538" y="258" width="60" height="79" as="geometry" />
        </mxCell>
        <mxCell id="pCc48zgU_tDkHlOEYlg7-6" value="" style="sketch=0;points=[[0,0,0],[0.25,0,0],[0.5,0,0],[0.75,0,0],[1,0,0],[0,1,0],[0.25,1,0],[0.5,1,0],[0.75,1,0],[1,1,0],[0,0.25,0],[0,0.5,0],[0,0.75,0],[1,0.25,0],[1,0.5,0],[1,0.75,0]];outlineConnect=0;fontColor=#232F3E;fillColor=#8C4FFF;strokeColor=#ffffff;dashed=0;verticalLabelPosition=bottom;verticalAlign=top;align=center;html=1;fontSize=12;fontStyle=0;aspect=fixed;shape=mxgraph.aws4.resourceIcon;resIcon=mxgraph.aws4.glue;" parent="pCc48zgU_tDkHlOEYlg7-5" vertex="1">
          <mxGeometry x="6" y="31" width="48" height="48" as="geometry" />
        </mxCell>
        <mxCell id="pCc48zgU_tDkHlOEYlg7-7" value="Glue" style="text;html=1;align=center;verticalAlign=middle;whiteSpace=wrap;rounded=0;" parent="pCc48zgU_tDkHlOEYlg7-5" vertex="1">
          <mxGeometry width="60" height="30" as="geometry" />
        </mxCell>
        <mxCell id="pCc48zgU_tDkHlOEYlg7-10" value="&lt;b&gt;Pipeline 3&lt;/b&gt;" style="text;html=1;align=center;verticalAlign=middle;whiteSpace=wrap;rounded=0;" parent="pCc48zgU_tDkHlOEYlg7-3" vertex="1">
          <mxGeometry x="168.25" y="297.25" width="160" height="30" as="geometry" />
        </mxCell>
        <mxCell id="pCc48zgU_tDkHlOEYlg7-16" value="" style="fillColor=none;strokeColor=#5A6C86;dashed=1;verticalAlign=top;fontStyle=0;fontColor=#5A6C86;whiteSpace=wrap;html=1;" parent="pCc48zgU_tDkHlOEYlg7-3" vertex="1">
          <mxGeometry y="-47" width="280" height="470" as="geometry" />
        </mxCell>
        <mxCell id="pCc48zgU_tDkHlOEYlg7-19" value="" style="fillColor=none;strokeColor=#5A6C86;dashed=1;verticalAlign=top;fontStyle=0;fontColor=#5A6C86;whiteSpace=wrap;html=1;" parent="pCc48zgU_tDkHlOEYlg7-3" vertex="1">
          <mxGeometry x="463" y="-54" width="182" height="477" as="geometry" />
        </mxCell>
        <mxCell id="pCc48zgU_tDkHlOEYlg7-17" value="" style="fillColor=none;strokeColor=#5A6C86;dashed=1;verticalAlign=top;fontStyle=0;fontColor=#5A6C86;whiteSpace=wrap;html=1;" parent="pCc48zgU_tDkHlOEYlg7-3" vertex="1">
          <mxGeometry x="294" y="-48" width="152" height="470" as="geometry" />
        </mxCell>
        <mxCell id="pCc48zgU_tDkHlOEYlg7-8" style="edgeStyle=orthogonalEdgeStyle;rounded=0;orthogonalLoop=1;jettySize=auto;html=1;" parent="1" source="H4yflijEu1tVJ6YrY11g-14" target="hJE6HdYvSHdutJNPKk4N-1" edge="1">
          <mxGeometry relative="1" as="geometry" />
        </mxCell>
        <mxCell id="pCc48zgU_tDkHlOEYlg7-21" value="Excel File" style="text;html=1;align=center;verticalAlign=middle;whiteSpace=wrap;rounded=0;" parent="1" vertex="1">
          <mxGeometry x="49" y="471.5" width="60" height="30" as="geometry" />
        </mxCell>
      </root>
    </mxGraphModel>
  </diagram>
</mxfile>
